<svg width="102" height="62" viewBox="0 0 102 62" fill="none" xmlns="http://www.w3.org/2000/svg">
<path d="M22.1983 27.5015V44.7461C22.1983 46.4478 20.942 47.7032 19.267 47.7032C17.592 47.7032 16.3358 46.4478 16.3358 44.7461V29.817H12.0087C11.897 38.8278 10.4174 43.8813 6.8999 46.4478C5.7274 47.3126 4.63865 47.7032 3.35448 47.7032C1.79114 47.7032 0.702393 46.671 0.702393 45.1366C0.702393 43.8813 1.37239 42.9607 2.5449 42.5422C5.47615 41.4821 6.45324 38.2181 6.45324 29.5142V27.4457C6.45324 25.744 7.70949 24.4886 9.41241 24.4886H19.2391C20.942 24.5444 22.1983 25.7998 22.1983 27.5015Z" fill="#2F3226"/>
<path d="M46.9256 44.923C46.9256 46.5077 45.6943 47.7032 44.0153 47.7032C42.7561 47.7032 41.8047 46.9804 41.245 45.5903L40.7693 44.3948H32.7101L32.2343 45.5903C31.6747 46.9804 30.7232 47.7032 29.464 47.7032C27.785 47.7032 26.5537 46.5077 26.5537 44.923C26.5537 44.506 26.6656 44.0055 26.8615 43.5051L33.9413 26.4347C34.445 25.1836 35.4244 24.4886 36.7397 24.4886C38.0549 24.4886 39.0343 25.1558 39.538 26.4347L46.6178 43.5051C46.8417 44.0055 46.9256 44.5338 46.9256 44.923ZM34.445 39.7518H39.0343L36.7397 33.1906L34.445 39.7518Z" fill="#2F3226"/>
<path d="M71.6528 27.4598V44.7597C71.6528 46.4536 70.4005 47.7032 68.7308 47.7032C67.0611 47.7032 65.8088 46.4536 65.8088 44.7597V35.124L56.7923 46.4536C56.1244 47.3144 55.2896 47.7032 54.3434 47.7032C52.7015 47.7032 51.4214 46.4258 51.4214 44.7597V27.4598C51.4214 25.7659 52.6737 24.5164 54.3434 24.5164C56.0131 24.5164 57.2654 25.7659 57.2654 27.4598V37.3177L65.7531 26.3491C66.5045 25.405 67.1724 24.4886 68.7864 24.4886C70.4283 24.5164 71.6528 25.7937 71.6528 27.4598Z" fill="#2F3226"/>
<path d="M100.174 27.5154V44.7597C100.174 46.4536 98.9246 47.7032 97.2592 47.7032C95.5938 47.7032 94.3448 46.4536 94.3448 44.7597V36.929L91.4304 41.5663C90.6254 42.8437 89.876 43.3713 88.7935 43.3713C87.711 43.3713 86.9616 42.8714 86.1566 41.5663L83.2422 36.929V44.7597C83.2422 46.4536 81.9932 47.7032 80.3278 47.7032C78.6624 47.7032 77.4133 46.4536 77.4133 44.7597V27.5154C77.4133 25.7937 78.6346 24.4886 80.3278 24.4886C81.5213 24.4886 82.3262 25.0717 83.27 26.6268L88.7935 35.5127L94.317 26.6268C95.2608 25.0717 96.0935 24.4886 97.2592 24.4886C98.9524 24.4886 100.174 25.7659 100.174 27.5154Z" fill="#2F3226"/>
<path d="M73.7595 0C73.7595 0 74.1231 16.5966 58.9082 21.3744C58.8802 21.3744 55.1604 9.02476 73.7595 0Z" fill="#ACE614"/>
<path d="M68.7628 15.7769C66.7237 18.1749 63.8745 20.2941 59.9918 21.6326C68.8187 24.0306 74.1819 16.0557 74.1819 16.0557C72.1148 15.7211 70.3271 15.6374 68.7628 15.7769Z" fill="#7CCE04"/>
<path d="M7.02078 58.7443C7.02078 59.2811 6.8893 59.7449 6.62635 60.1358C6.3634 60.5268 5.98358 60.8302 5.4869 61.046C4.99606 61.2561 4.4088 61.3669 3.72513 61.3786V62H3.29565V61.3786C2.61198 61.3669 2.0218 61.2561 1.52511 61.046C1.03427 60.8302 0.657376 60.5268 0.394426 60.1358C0.131475 59.7449 0 59.2811 0 58.7443C0 58.2017 0.131475 57.7349 0.394426 57.344C0.657376 56.9531 1.03427 56.6526 1.52511 56.4425C2.0218 56.2267 2.61198 56.1129 3.29565 56.1012V55.4886H3.72513V56.1012C4.7594 56.1304 5.56579 56.3754 6.14428 56.8364C6.72861 57.2973 7.02078 57.9333 7.02078 58.7443ZM3.72513 61.011C4.62501 60.9819 5.32621 60.7718 5.82874 60.3809C6.33126 59.9841 6.58253 59.4357 6.58253 58.7355C6.58253 58.0412 6.33126 57.4986 5.82874 57.1077C5.32621 56.7109 4.62501 56.498 3.72513 56.4688V61.011ZM0.438251 58.7443C0.438251 59.4444 0.689515 59.99 1.19204 60.3809C1.69457 60.7718 2.39577 60.9819 3.29565 61.011V56.4688C2.38993 56.498 1.6858 56.7109 1.18328 57.1077C0.686593 57.4986 0.438251 58.0441 0.438251 58.7443Z" fill="#1F201C" fill-opacity="0.5"/>
<path d="M14.1308 55.6811C14.9021 55.6811 15.5069 55.8649 15.9451 56.2325C16.3834 56.5942 16.6025 57.0989 16.6025 57.7466C16.6025 58.3884 16.3834 58.8931 15.9451 59.2607C15.5069 59.6224 14.9021 59.8033 14.1308 59.8033H12.3778V61.8075H11.9308V55.6811H14.1308ZM14.1308 59.4007C14.7852 59.4007 15.2848 59.2577 15.6296 58.9718C15.9744 58.6859 16.1467 58.2775 16.1467 57.7466C16.1467 57.2156 15.9744 56.8072 15.6296 56.5213C15.2848 56.2296 14.7852 56.0837 14.1308 56.0837H12.3778V59.4007H14.1308Z" fill="#1F201C" fill-opacity="0.5"/>
<path d="M25.598 61.4049V61.8075H21.3645V55.6811H25.4665V56.0837H21.8115V58.4992H25.0808V58.8931H21.8115V61.4049H25.598Z" fill="#1F201C" fill-opacity="0.5"/>
<path d="M37.7929 55.6811V61.8075H30.4215V55.6811H30.8685V61.4049H33.8837V55.6811H34.3307V61.4049H37.3459V55.6811H37.7929Z" fill="#1F201C" fill-opacity="0.5"/>
<path d="M54.7147 61.8075L54.706 56.5651L52.1378 60.9935H51.9187L49.3505 56.5826V61.8075H48.9123V55.6811H49.2892L52.0326 60.4159L54.7761 55.6811H55.1442L55.153 61.8075H54.7147Z" fill="#1F201C" fill-opacity="0.5"/>
<path d="M64.5742 60.0833H61.0156L60.2355 61.8075H59.7534L62.5758 55.6811H63.0228L65.8451 61.8075H65.3631L64.5742 60.0833ZM64.4077 59.707L62.7949 56.1712L61.1909 59.707H64.4077Z" fill="#1F201C" fill-opacity="0.5"/>
<path d="M72.6503 55.6811C73.4216 55.6811 74.0264 55.8649 74.4646 56.2325C74.9029 56.5942 75.122 57.0989 75.122 57.7466C75.122 58.3884 74.9029 58.8931 74.4646 59.2607C74.0264 59.6224 73.4216 59.8033 72.6503 59.8033H70.8973V61.8075H70.4503V55.6811H72.6503ZM72.6503 59.4007C73.3047 59.4007 73.8043 59.2577 74.1491 58.9718C74.4939 58.6859 74.6662 58.2775 74.6662 57.7466C74.6662 57.2156 74.4939 56.8072 74.1491 56.5213C73.8043 56.2296 73.3047 56.0837 72.6503 56.0837H70.8973V59.4007H72.6503Z" fill="#1F201C" fill-opacity="0.5"/>
<path d="M81.8035 58.9018H80.331V61.8075H79.8839V55.6811H80.331V58.4992H81.8122L84.0123 55.6811H84.5119L82.1628 58.6655L84.6696 61.8075H84.1438L81.8035 58.9018Z" fill="#1F201C" fill-opacity="0.5"/>
<path d="M93.3286 61.4049V61.8075H89.0951V55.6811H93.1971V56.0837H89.5421V58.4992H92.8115V58.8931H89.5421V61.4049H93.3286Z" fill="#1F201C" fill-opacity="0.5"/>
<path d="M102 56.0837H99.7912V61.8075H99.3442V56.0837H97.1354V55.6811H102V56.0837Z" fill="#1F201C" fill-opacity="0.5"/>
</svg>
