<svg width="20" height="20" viewBox="0 0 20 20" fill="none" xmlns="http://www.w3.org/2000/svg">
<g opacity="0.3" clip-path="url(#clip0_226_3773)">
<path d="M17.1754 3.82185C17.7808 3.97838 18.2372 4.33206 18.554 4.87162C19.2071 5.9844 18.8795 7.45113 17.7675 8.10877L17.686 8.09362C17.4458 8.23459 17.3255 8.5124 17.3707 8.79611C17.4908 9.54992 17.5161 10.325 17.4067 11.0774C17.3666 11.3535 17.4951 11.621 17.7347 11.7593L17.8024 11.7984C18.9216 12.4446 19.3064 13.8808 18.6602 15C18.0141 16.1192 16.5778 16.5041 15.4586 15.8579L15.391 15.8188C15.1501 15.6797 14.8541 15.7037 14.6348 15.8786C14.0341 16.3575 13.3489 16.7317 12.6291 17.0087C12.364 17.1108 12.2502 17.3904 12.2481 17.6686C12.2481 17.6703 12.2459 17.6708 12.2459 17.6725C12.2416 18.0898 12.0691 18.4474 11.8738 18.7857C11.4644 19.495 10.7091 19.9784 9.83562 19.9722C9.21003 19.9677 8.67546 19.7493 8.23722 19.3032C7.79811 18.8563 7.49896 18.2294 7.50554 17.6018L7.51082 17.5926C7.51276 17.3205 7.3836 17.0904 7.13678 16.9905C6.81254 16.8593 6.4576 16.6827 6.15304 16.5069C5.83528 16.3234 5.53211 16.1175 5.24565 15.891C5.03309 15.723 4.77507 15.7324 4.53376 15.8741L4.52753 15.8849C3.98779 16.2033 3.29506 16.2567 2.68927 16.1001C2.08385 15.9435 1.6274 15.5898 1.31071 15.0503C0.65756 13.9375 0.985237 12.4708 2.09715 11.8132L2.18831 11.8115C2.4265 11.6717 2.54345 11.3942 2.50125 11.1132C2.38957 10.3696 2.41127 9.62963 2.52253 8.88887C2.56455 8.60961 2.43844 8.34069 2.19762 8.20165C1.07841 7.55548 0.693573 6.11923 1.33974 5.00003C1.98592 3.88083 3.42216 3.49599 4.54136 4.14216C4.78087 4.28044 5.07677 4.25669 5.29732 4.08281C5.88035 3.62327 6.50831 3.24162 7.2023 2.97077C7.46809 2.86698 7.64908 2.62606 7.65105 2.34976L7.61764 2.25139C7.63106 0.956813 8.73887 -0.059547 10.029 -0.0502894C10.6546 -0.0458183 11.1892 0.172652 11.6274 0.618696C12.0666 1.06563 12.3657 1.69256 12.3591 2.32017L12.3323 2.36655C12.3304 2.64095 12.4592 2.87096 12.7059 2.96944C13.0414 3.10342 13.3777 3.26732 13.6921 3.44883C13.9907 3.62121 14.3334 3.84633 14.6043 4.05639C14.815 4.21986 15.0784 4.2164 15.3131 4.0787L15.3371 4.03719C15.8769 3.71872 16.5696 3.66522 17.1754 3.82185ZM16.7609 5.32107C16.5593 5.26897 16.3506 5.29979 16.1704 5.40635C16.1697 5.40676 16.17 5.40776 16.1693 5.40817L16.1452 5.44995C15.3523 5.91527 14.349 5.83981 13.6273 5.27988C13.4123 5.11317 13.1483 4.9391 12.9108 4.80202C12.6611 4.65783 12.4018 4.53215 12.1357 4.42589C11.2965 4.09084 10.7899 3.28325 10.7963 2.37082L10.7566 2.28331C10.7588 2.07136 10.6823 1.87581 10.5363 1.72732C10.3913 1.57968 10.2335 1.5185 10.0263 1.51701C9.59478 1.5139 9.22469 1.85507 9.22015 2.28826L9.18706 2.34556C9.18053 3.26532 8.66187 4.10366 7.79659 4.44143C7.24631 4.65619 6.68752 4.92333 6.22565 5.28738C5.49993 5.85944 4.55669 5.95522 3.76011 5.49532C3.38705 5.27993 2.9083 5.40821 2.69291 5.78128C2.47752 6.15434 2.6058 6.63309 2.97887 6.84848C3.7798 7.31091 4.1642 8.17807 4.02622 9.09691C3.93813 9.6837 3.98202 10.3053 4.0706 10.895C4.20822 11.8109 3.74446 12.6792 2.95273 13.1437L2.93041 13.1824C2.55967 13.4017 2.44828 13.8921 2.66665 14.2643C2.7716 14.443 2.90344 14.549 3.10381 14.6008C3.30537 14.653 3.51413 14.6222 3.69427 14.5156C3.69567 14.5148 3.69496 14.5128 3.69632 14.5121L3.70259 14.5012C4.49336 14.0371 5.5077 14.105 6.22163 14.6693C6.44884 14.8489 6.68186 15.008 6.93429 15.1537C7.17634 15.2935 7.45022 15.4291 7.70751 15.5332C8.55578 15.8765 9.12066 16.7062 9.11411 17.6282L9.10771 17.6393C9.10549 17.8503 9.18246 18.0461 9.32836 18.1946C9.47342 18.3422 9.63116 18.4034 9.83841 18.4049C10.27 18.408 10.6401 18.0668 10.6445 17.6336C10.6445 17.6332 10.6456 17.6328 10.6457 17.6317C10.649 17.2354 10.7367 16.849 10.9251 16.5227C11.1759 16.0883 11.6097 15.7629 12.1054 15.5721C12.6762 15.3524 13.2267 15.0602 13.7025 14.6809C14.4278 14.1027 15.371 14.0031 16.1722 14.4656L16.2399 14.5047C16.613 14.7201 17.0917 14.5918 17.3071 14.2187C17.5225 13.8457 17.3942 13.3669 17.0211 13.1515L16.9535 13.1125C16.1566 12.6524 15.6993 11.749 15.832 10.8361C15.9187 10.2401 15.9588 9.66052 15.8635 9.06283C15.7162 8.13904 16.1223 7.23034 16.9218 6.76117L16.9344 6.73928C17.3049 6.52008 17.4165 6.02979 17.198 5.65767C17.0931 5.4789 16.9613 5.37292 16.7609 5.32107Z" fill="#222222"/>
<circle cx="10" cy="10" r="2.25" stroke="#222222" stroke-width="1.5"/>
</g>
<defs>
<clipPath id="clip0_226_3773">
<rect width="20" height="20" fill="white"/>
</clipPath>
</defs>
</svg>
