<svg width="21" height="16" viewBox="0 0 21 16" fill="none" xmlns="http://www.w3.org/2000/svg">
<g clip-path="url(#clip0_226_3783)">
<path d="M10.8999 14.7C10.8999 14.7 11.2999 10.1 15.4999 10.1C19.6999 10.1 19.9999 14.6 19.9999 14.6" stroke="#B7B9B9" stroke-width="2" stroke-miterlimit="10" stroke-linecap="round"/>
<path d="M1 14.7C1 14.7 1.4 10.1 5.6 10.1C7 10.1 8 10.6 8.7 11.4" stroke="#B7B9B9" stroke-width="2" stroke-miterlimit="10" stroke-linecap="round"/>
<path d="M5.4 6.00001C6.72548 6.00001 7.8 4.9255 7.8 3.60001C7.8 2.27453 6.72548 1.20001 5.4 1.20001C4.07452 1.20001 3 2.27453 3 3.60001C3 4.9255 4.07452 6.00001 5.4 6.00001Z" stroke="#B7B9B9" stroke-width="2" stroke-miterlimit="10"/>
<path d="M15.2999 5.8C16.6254 5.8 17.6999 4.72548 17.6999 3.4C17.6999 2.07452 16.6254 1 15.2999 1C13.9744 1 12.8999 2.07452 12.8999 3.4C12.8999 4.72548 13.9744 5.8 15.2999 5.8Z" stroke="#B7B9B9" stroke-width="2" stroke-miterlimit="10"/>
</g>
<defs>
<clipPath id="clip0_226_3783">
<rect width="20.9" height="15.7" fill="white"/>
</clipPath>
</defs>
</svg>
