<svg width="20" height="20" viewBox="0 0 20 20" fill="none" xmlns="http://www.w3.org/2000/svg">
<g opacity="0.3" clip-path="url(#clip0_226_3759)">
<path d="M16.1719 14.7251C14.7718 14.7251 13.6328 13.5861 13.6328 12.1861C13.6328 10.786 14.7718 9.647 16.1719 9.647C17.5719 9.647 18.7109 10.786 18.7109 12.1861C18.7109 13.5861 17.5719 14.7251 16.1719 14.7251ZM16.1719 11.2095C15.6334 11.2095 15.1953 11.6476 15.1953 12.1861C15.1953 12.7245 15.6334 13.1626 16.1719 13.1626C16.7104 13.1626 17.1484 12.7245 17.1484 12.1861C17.1484 11.6476 16.7104 11.2095 16.1719 11.2095ZM9.92188 15.1548C8.52184 15.1548 7.38281 14.0158 7.38281 12.6158C7.38281 11.2157 8.52184 10.0767 9.92188 10.0767C11.3219 10.0767 12.4609 11.2157 12.4609 12.6158C12.4609 14.0158 11.3219 15.1548 9.92188 15.1548ZM9.92188 11.6392C9.3834 11.6392 8.94531 12.0773 8.94531 12.6158C8.94531 13.1542 9.3834 13.5923 9.92188 13.5923C10.4604 13.5923 10.8984 13.1542 10.8984 12.6158C10.8984 12.0773 10.4604 11.6392 9.92188 11.6392ZM5.23301 19.2565C5.25848 18.8258 4.93 18.4559 4.49926 18.4305C2.85246 18.3331 1.5625 16.9628 1.5625 15.3111V8.73798C1.5625 7.76946 2.02227 6.84056 2.79234 6.25321L8.10484 2.2013C9.2207 1.35028 10.7793 1.35028 11.8952 2.2013L17.2077 6.25321C17.9777 6.84056 18.4375 7.76942 18.4375 8.73798C18.4375 9.16946 18.7873 9.51923 19.2188 9.51923C19.6502 9.51923 20 9.16946 20 8.73798C20 7.28521 19.3104 5.89185 18.1552 5.01083L12.8427 0.958916C11.1689 -0.317686 8.83105 -0.317686 7.15727 0.958916L1.84477 5.01083C0.689649 5.89185 0 7.28517 0 8.73798V15.3111C0 17.7887 1.93578 19.844 4.40699 19.9903C4.4227 19.9912 4.43832 19.9917 4.45387 19.9917C4.86418 19.9916 5.20844 19.6715 5.23301 19.2565ZM8.04688 19.2173C8.04688 18.3773 8.73891 17.6939 9.58949 17.6939H10.625C11.0565 17.6939 11.4062 17.3441 11.4062 16.9126C11.4062 16.4811 11.0565 16.1314 10.625 16.1314H9.58949C7.8773 16.1314 6.48438 17.5157 6.48438 19.2173C6.48438 19.6488 6.83414 19.9986 7.26562 19.9986C7.69711 19.9986 8.04688 19.6488 8.04688 19.2173ZM20 19.2173C20 17.2166 18.3665 15.5888 16.3586 15.5888H15.8289C13.821 15.5888 12.1875 17.2166 12.1875 19.2173C12.1875 19.6488 12.5373 19.9986 12.9688 19.9986C13.4002 19.9986 13.75 19.6488 13.75 19.2173C13.75 18.0781 14.6826 17.1513 15.8289 17.1513H16.3586C17.5049 17.1513 18.4375 18.0781 18.4375 19.2173C18.4375 19.6488 18.7873 19.9986 19.2188 19.9986C19.6502 19.9986 20 19.6488 20 19.2173Z" fill="#222222"/>
</g>
<defs>
<clipPath id="clip0_226_3759">
<rect width="20" height="20" fill="white"/>
</clipPath>
</defs>
</svg>
