<svg width="25" height="25" viewBox="0 0 25 25" fill="none" xmlns="http://www.w3.org/2000/svg">
<path d="M21.3623 16.0821V14.7949C21.3623 13.1795 20.048 11.8652 18.4326 11.8652C16.8172 11.8652 15.5029 13.1795 15.5029 14.7949V16.0655C13.9452 16.5794 12.8174 18.0478 12.8174 19.7754V21.0938C12.8174 23.2477 14.5697 25 16.7236 25H20.0928C22.2467 25 23.999 23.2477 23.999 21.0938V19.7754C23.999 18.0659 22.8947 16.6104 21.3623 16.0821ZM18.4326 13.8184C18.9711 13.8184 19.4092 14.2564 19.4092 14.7949V15.8691H17.4561V14.7949C17.4561 14.2564 17.8941 13.8184 18.4326 13.8184ZM22.0459 21.0938C22.0459 22.1707 21.1697 23.0469 20.0928 23.0469H16.7236C15.6467 23.0469 14.7705 22.1707 14.7705 21.0938V19.7754C14.7705 18.6984 15.6467 17.8223 16.7236 17.8223H20.0928C21.1697 17.8223 22.0459 18.6984 22.0459 19.7754V21.0938ZM10.5225 13.1836C14.1572 13.1836 17.1143 10.2265 17.1143 6.5918C17.1143 2.95708 14.1572 0 10.5225 0C6.88774 0 3.93066 2.95708 3.93066 6.5918C3.93066 10.2265 6.88774 13.1836 10.5225 13.1836ZM10.5225 1.95312C13.0802 1.95312 15.1611 4.03403 15.1611 6.5918C15.1611 9.14956 13.0802 11.2305 10.5225 11.2305C7.9647 11.2305 5.88379 9.14956 5.88379 6.5918C5.88379 4.03403 7.9647 1.95312 10.5225 1.95312ZM19.6859 20.4102C19.6859 21.0843 19.1394 21.6309 18.4652 21.6309C17.791 21.6309 17.2445 21.0843 17.2445 20.4102C17.2445 19.736 17.791 19.1895 18.4652 19.1895C19.1394 19.1895 19.6859 19.736 19.6859 20.4102ZM11.8408 16.1133C11.8408 16.6526 11.4036 17.0898 10.8643 17.0898H9.8877C6.0645 17.0898 2.9541 20.2002 2.9541 24.0234C2.9541 24.5628 2.51689 25 1.97754 25C1.43818 25 1.00098 24.5628 1.00098 24.0234C1.00098 19.1233 4.98755 15.1367 9.8877 15.1367H10.8643C11.4036 15.1367 11.8408 15.5739 11.8408 16.1133Z" fill="black"/>
</svg>
