<svg width="21" height="20" viewBox="0 0 21 20" fill="none" xmlns="http://www.w3.org/2000/svg">
<g opacity="0.3" clip-path="url(#clip0_226_3779)">
<path d="M20.0352 9.9883C20.0352 10.6133 19.793 11.1992 19.3477 11.6446L17.8516 13.1367C17.5469 13.4414 17.0508 13.4414 16.7461 13.1367C16.4414 12.8321 16.4414 12.336 16.7461 12.0313L18.2422 10.5391C18.543 10.25 18.543 9.7344 18.2461 9.44533L16.7578 7.98049C16.4492 7.6797 16.4453 7.18361 16.7461 6.87502C17.0469 6.56642 17.543 6.56251 17.8516 6.8633C17.8516 6.8633 19.3516 8.32814 19.3516 8.33205C19.793 8.77736 20.0352 9.3633 20.0352 9.9883Z" fill="black"/>
<path d="M16.0195 9.18362H4.16797C2.82813 9.22659 2.83203 10.7071 4.16797 10.7461H16.0195C16.5781 10.7461 17.0273 10.3946 17.0273 9.96487C17.0273 9.53519 16.5781 9.18362 16.0195 9.18362Z" fill="black"/>
<path d="M15.0195 18.4375H4.98047C3.09375 18.4375 1.5625 16.9062 1.5625 15.0195V4.98047C1.5625 3.09375 3.09375 1.5625 4.98047 1.5625H15.0195C16.9062 1.5625 18.4375 3.09375 18.4375 4.98047V5.02344C18.4375 5.10156 18.4688 5.17578 18.5234 5.23047C18.8477 5.54688 19.1992 5.89062 19.5 6.1875C19.6836 6.36719 19.9961 6.23828 19.9961 5.98047V4.98047C20 2.23047 17.7695 0 15.0195 0H4.98047C2.23047 0 0 2.23047 0 4.98047V15.0195C0 17.7695 2.23047 20 4.98047 20H15.0195C17.7695 20 20 17.7695 20 15.0195V14.043C20 13.7812 19.6875 13.6523 19.5 13.8359L18.5234 14.8125C18.4688 14.8672 18.4375 14.9414 18.4375 15.0195C18.4375 16.9062 16.9062 18.4375 15.0195 18.4375Z" fill="black"/>
</g>
<defs>
<clipPath id="clip0_226_3779">
<rect width="20.0352" height="20" fill="white"/>
</clipPath>
</defs>
</svg>
