<svg width="20" height="20" viewBox="0 0 20 20" fill="none" xmlns="http://www.w3.org/2000/svg">
<path fill-rule="evenodd" clip-rule="evenodd" d="M13.4172 3.54687C12.6981 2.80446 11.5275 2.81995 10.827 3.58115L3.04738 12.0347C2.82131 12.2803 2.66426 12.5849 2.59306 12.9156L2.04428 15.4649C1.7607 16.7822 2.88282 17.9655 4.16464 17.7008L7.05658 17.1037C7.40673 17.0314 7.72831 16.8538 7.98081 16.5931L15.7391 8.58425C16.4455 7.85509 16.4455 6.67289 15.7391 5.94373L13.4172 3.54687ZM12.1383 4.86713L14.4602 7.26399L6.70186 15.2729L3.80992 15.8699L4.3587 13.3207L12.1383 4.86713ZM11.6695 16.1329C11.17 16.1329 10.7651 16.5508 10.7651 17.0664C10.7651 17.582 11.17 18 11.6695 18H17.0956C17.5951 18 18 17.582 18 17.0664C18 16.5508 17.5951 16.1329 17.0956 16.1329H11.6695Z" fill="#B7B9B9"/>
</svg>
